<?xml version="1.0" encoding="UTF-8" standalone="no"?>
<!DOCTYPE svg PUBLIC "-//W3C//DTD SVG 20010904//EN" "http://www.w3.org/TR/2001/REC-SVG-20010904/DTD/svg10.dtd">
<svg height="957.249" viewBox="0 0 999 913" width="1047.42" xmlns="http://www.w3.org/2000/svg">
<defs>
<linearGradient>
<stop offset="0" stop-opacity=".47451"/>
<stop offset=".5" stop-color="#96863e" stop-opacity=".74167"/>
<stop offset="1" stop-color="#e9ed2a" stop-opacity=".59216"/>
</linearGradient>
</defs>
<path d="m420.99079,307.51395c-4.49858,2.39788 3.2082,3.17522 4.95657,5.33784 9.7193,7.12067 22.54716,9.24453 31.83308,17.40931 7.40892,5.12234 15.44218,10.54083 22.30788,15.76156 11.9378,6.98419 24.10456,15.78558 33.93341,26.30793 5.6421,5.75917 13.31284,10.3762 16.77607,17.15734-.84197,4.97041 4.21457,2.04859 3.81274,4.95657 .9699,2.62695 3.74949-2.18081 4.57529,2.28765 3.35492-7.9441 7.25099-18.37485 16.3948-20.20754 1.22816-4.02781-2.95116-8.1645-4.57528-12.20078-1.43506-2.35102-1.64416-5.28411-4.95658-7.24423-5.4604-6.17722-13.64045-11.63656-20.5888-17.15733-.73999-3.44269-8.20769-2.14462-6.86295-4.19402 3.72081-.9183-3.87944-3.87192-3.43146-.38127 3.6086,1.32158-.90643,1.60381-3.43148-.38128-2.47317-1.47381-3.02799-6.32439-3.12981-7.47764-2.98602-.30819-7.67009,3.84539-8.68968.99598-.61652-3.11946-2.41549-5.1212-5.33786-4.57529-3.36992-.90131-4.33717,3.74611-1.52509,2.66892 3.2809-.98331-3.69349,3.32418-2.28763,0-1.80602,2.7529-1.64602-1.66189-3.43148,1.14382-1.65758-1.3998-5.65467,1.84563-6.48166-.76255-.23752,4.23513-1.93428,3.78793-5.71912,4.19402 .98769,1.26431 5.5784,8.82278 8.00674,3.81274 3.33961-.79856 2.86808,1.59393 4.57532,1.5251-2.1374,2.86204 2.59383,5.81342.76254,7.24421 .39217,1.20878 5.60167,5.33055 1.90638,3.81275-1.52762-1.57789-4.29257-2.63652-8.35174-4.08963 4.25903-1.32961-1.6059-2.76968-4.99287-3.15459-.24608-2.53424-4.69395-3.10249-6.1004-5.71911-.49957-3.51409-4.82933-1.98535-4.57529-5.71912 2.17215-3.28193-2.8933-3.14046-4.194-2.28764 .48877,3.31763-4.21351-.69223-4.95657-1.90637-3.92956-1.06844-8.13308-2.68534-6.1004-3.81275-4.60438-.60268-7.8613-2.18397-11.43821-4.57529-1.61171-3.0446-8.38345-3.68143-11.43823-4.57529-1.33249-1.53693-4.48878-4.18506-7.24423-4.19402zm-12.96332,2.66892c-1.80623.28582-4.73682,3.85317-2.66891,5.71912 2.34379,2.78869 2.77507,5.56973-.76255,2.28764-1.8052-1.55684-2.43598-4.16104-6.1004-2.66892-3.58635,1.07505-10.14343,5.41785-7.2442,9.15059 1.16563,1.49243-3.16795,3.08392-3.81277,6.10039-3.22406,3.62634 4.08517,1.12143 4.19403,3.81274 .96266,1.54765-1.50427,5.77556-4.95658,4.57529-3.85654-2.00707-7.84736-2.33094-10.67566.76255-3.2459,1.04662-7.89564,5.10019-5.71911,9.91313 .29829,3.22184 7.12329,4.0697 1.1438,4.95657-2.74666,1.69707 1.0813,6.45797.76257,9.53186 3.8672,4.5104 5.36859,11.44064 8.38803,15.63225 2.36988,6.00836.47639,14.08694 4.95657,18.30116 3.30018,4.52155 5.63097,12.05596 8.00675,18.30117 2.75267,1.44224 3.99408,1.5957 6.86294.76255 5.55802-.95643 5.15596,3.55627 7.24421,7.24422 2.51844-.81796 4.59492,1.75855 6.48168-2.66892 4.80537-6.67848 4.54468-16.56689-2.66894-20.9701-2.25294-2.74747-2.19555-7.85765-2.66892-11.05695-1.77746,1.00202-3.51091,3.63257-4.95657,1.5251 1.25666-2.21224.61179-4.29943 3.0502-5.71912 1.61635-2.76055 2.74736.78643 2.28766,3.0502 2.20668-.43451 6.41006-2.20836 7.2442-5.71912 3.15213-3.65496 5.51616-9.71046 10.67569-12.96333 2.28012-3.07064 8.05149-4.06733 7.62549-8.00676 2.58086-2.33283 2.58117,1.77851 1.52509,2.66892 2.3861-.18143 3.3569,2.23947 4.95657,4.95657 2.10566,4.09419 6.83755,6.70255 4.95657,12.20078-.81786,7.45202-1.21825,14.94492-1.14383,22.49518-6.01364-.00556-12.05901.18437-17.91989-.76255-1.75346,1.91993-2.41032,6.75157 1.52509,6.10039 2.44706,3.1488 1.08903,8.38078 6.1004,7.62549 1.83212,3.07515 5.40411,3.38958 9.91312,3.0502 2.0487,3.65023 9.68417,1.12671 12.96332,3.43147 2.60907-.87564 6.02977-2.37715 7.62551-4.5753 3.25194.36858 9.12802-2.00195 4.95655-3.81274 1.05561-1.19105-.95621-2.40032.38128-3.43147-.59181-.65593 7.47612-1.55159 1.52509-2.66892-2.39725-2.26362-6.60947-1.00185-10.23358-2.26738-3.28559-1.08349-6.12727-2.56204-8.06757-4.59556-2.59363-1.96551-2.28809-7.86995.38126-9.53186 1.79055-1.30312-.7607-4.30324 1.52511-6.48166 1.92334-.65732 1.64308-9.08089 3.81272-3.43147 1.13496,3.51752-.14774-7.45286 3.0502-1.14382 1.68866,3.41072 4.51068,1.21882 4.57529,4.95433-.57705,3.77114-.68604,9.63203 1.14382,12.58429 1.9904,3.79672.96196,8.75463 6.48169,8.76931 .99378,2.64584 4.04509,2.65497 6.48166,4.57529-1.80164-2.72109-.09009-3.64543-1.14383-3.81274-4.78743-4.21529 3.37656-1.97856 1.14383-4.19402-3.86084-.75263-8.77431-5.56381-4.95657-8.76931 3.79377-.06413 7.65165,3.09621 11.43823,3.81274 1.51703,2.56154 1.93619,3.19728 3.43146,4.57529 2.01172,1.41654 2.09794,6.60957 4.57529,9.15059 3.40913,1.17488.70066,6.95231.76257,9.53186-.34735,7.54799-.37914,3.14748 1.52509,3.43147-.66981,4.344 3.72782,5.42822 3.0502,10.2944 2.30756.584 2.73744,6.82742.76254,8.38804-.60394,3.11926-1.21646,6.63584-2.66892,8.38804-3.19697,2.45874-3.13744,9.65193-8.00677,11.8195-.74083,3.30236-5.99836,3.78612-6.86292,8.00676-2.26127,3.67879-6.6294,6.83654-9.53186,8.38804-2.14063,2.72462-6.80625,3.8889-10.29443,5.71911-3.79918,1.8926-9.20886,4.81571-14.10715,8.00676-5.22031,1.14181-13.56049,5.52727-17.15735,0-.54018-1.57428-5.23835-5.28956-4.57528-1.5251 2.28376.76764 4.9794,4.97177 0,3.81275-.98308-.87384-5.31144-1.27548-6.86295-3.81275-2.82637-2.91959-3.57231-5.66651-6.48166-8.38803 .85026-3.72335-2.18198-6.45498-.76254-9.91313 4.83098,3.04111 8.36189,6.91827 14.48843,4.95656 5.09534.94288 5.41615-8.35579-.38128-5.71911-3.41838-.65643-6.82896-.81763-9.15058-3.43147 4.73916-3.14281 11.0833-5.79679 17.53861-4.95657 3.73306-.20895 9.45492.61428 11.81952-1.52509-2.2196-2.36749-8.26615-.68068-11.81952-2.66892-3.47203-.88067-8.86037-.98083-11.05695-3.0502-.80691-2.8087 3.43771-6.96267-.76254-8.00676 2.38794-3.86745 3.50291,3.04144 5.71912-.38127 3.26331.16934 6.18266-8.83047 0-3.0502-3.5844,1.46162-9.72352,1.48765-12.20078,2.66892 3.54433,3.26073-11.54067-.05679-6.48169.38128-2.17342.36125.80488,5.23598-.38125,8.00676-2.26596-3.91606-5.10063,3.26257-1.14383,5.33784 2.62365-.265 3.55895,8.23042.76254,5.71911-2.56664-1.10034-4.50781-3.15776-4.194-5.33784-3.68197-3.09286-1.78901-10.46933-3.43149-14.48842-2.58677-.1176-5.04682-3.30692-4.194-6.10039-1.54963-3.53795-4.48787-1.90213-4.19403-6.86294-1.90602-.61374-.96854,3.62423-3.81274,4.57529-3.55671,1.3431-.37956,6.66798 2.28765,8.00676 2.86521,3.65251 1.68982,9.11885-3.0502,11.05696-11.06264,9.41296-25.18823,13.48831-38.88998,17.53862-9.09927,6.6249-18.56052,14.55279-24.00001,24.72202-5.35529,11.38047-10.14441,24.56768-16.0338,34.75677-3.0353,2.17231-5.44866,6.57546-9.53186,7.24422-4.54925,3.56626-4.11808,9.85442-2.28763,15.25096 .93775,7.30097 1.39622,6.97222 3.05017.38129 .95484-5.31631 3.67185-9.33128 9.1506-7.62549 4.61828-.72084 4.14798,4.96926 7.2442,5.7191 2.95606-.37558 3.36402-2.37227 5.33786-.38125 4.39217-.66011-.37587,7.02296 5.71909,4.95656 4.05314,1.1759 6.92984-2.23077 9.53186-1.52511 2.48484,4.54756 10.93511-.23764 12.96335,5.33785 3.79409,1.98791 5.20154,7.51337 9.53186,7.62549 4.99947,1.45321 11.1706,7.38587 12.20077,12.20077-1.30194,5.87918 6.13418,6.9677 8.6917,2.5182 6.12893-7.94653 14.17295-14.8941 19.5226-23.107-4.10088-.60688-13.03509.1593-11.05695-6.10041 7.44188-4.40793 18.90261-2.75273 25.1641-10.2944 3.61625-3.07104 1.29055-5.95278-3.05018-5.33784-4.4166-4.1033-13.67925-4.35982-19.445-8.76931-6.2628-1.97624-11.92327-9.10968-8.76932-15.25097 8.26792,1.37802 14.95399,8.45212 23.63901,8.76931 9.46014,1.49371-1.08932-4.27909-4.87269-6.1431-6.09463-4.86836-14.79294-6.74806-19.52886-12.92062-.8626-3.00506-4.50174-9.91529 1.52508-8.38803 11.23237,3.44645 22.2223,8.90086 33.17087,13.3446 5.64874,2.40294 12.42744,7.54256 19.06372,8.38802 3.17-9.19998 8.40218-22.01313 20.20755-20.5888 6.61809-.30307 13.26434-.43272 19.44498-3.43147 6.07178-2.58468 12.60374-4.13314 18.68246-1.14382 6.64448,1.27394 13.75611,6.32849 16.77606,11.43823 1.42487.91339 1.5362-3.6828 3.43146-3.81276 6.17602-2.33239 20.46175-.2935 23.06441-7.39206 1.5434-5.22474-.49809-12.81595 2.481-15.86566-.47515-4.43958 2.74908-5.64245 2.28763-10.29441 4.50324-.10894-.83754-6.13828 5.33785-3.43147 5.48273,3.00854 8.61754,9.99853 4.19401,15.63225-2.07826,3.97026-2.50942,8.70099-4.57529,11.43823-1.39416,4.8332-4.92608,9.90649-5.33783,15.63225-2.45487,4.01536-3.51278,11.58709-6.48169,16.01352-2.01266,2.76579-2.26832,7.17116-2.66891,10.29441-2.40572,1.68793-5.0661,6.77174-4.57529,9.91313 2.25262,2.45049 6.5987,7.06957 2.28766,9.15059-4.66303,4.10991-8.00219-4.4903-12.96335-4.19402-4.43672-.93994-8.4637-1.21631-12.20077-1.14382-4.25087.1315-5.44958,4.87208-6.1004,5.33784 2.31589-.51731 8.06269-2.87855 8.38806-.38128-3.85707,3.46136-10.49027,7.72646-9.15061,12.58205 2.14308,4.23886 5.89341,4.53621 8.76932,8.00676 2.62984-1.5976 8.64865-6.90311 11.86418-10.72035 2.90105-4.04262 6.51764-7.02887 9.86846-1.86169 8.29085,8.73214 15.35978,18.67191 24.02027,27.07048 21.3508-.25476 43.71931.5082 64.43538-.38127 1.1751-2.66717 3.47024-3.82163 6.86293-1.90638 4.72521,2.76059 8.65935-2.03314 13.72588,0 1.2145,4.25175 7.22796,1.50713 11.05696,2.28765 .31426-6.36678-6.43184-9.15085-7.75475-14.36568-7.12323-16.59596-8.70932-36.71091-17.02809-51.97606-3.73463-2.07095-3.53403-10.37586-7.62548-14.48843-5.367-10.04884-12.68623-19.1843-24.31768-21.77534-17.4181-7.51828-33.22616-18.77295-50.79336-25.1214-8.24486-5.15617-8.98245-16.35866-10.67569-25.16411-.42811-5.74873-.53133-10.74283 3.0502-15.63225 2.14981-2.92174-1.31688-5.14011.76254-5.71911 .79993-4.85027 1.78964-12.03353-2.28763-15.63225-.04303-2.49635-3.33677-3.05683-3.43148-5.33784-2.39604-1.46649-3.55187-4.37838-5.71912-6.10039-2.43105-1.18422-2.13729-5.53623-4.57529-6.10039-1.63483-2.39329-3.76888-5.66448-6.86294-7.62549-2.7588-8.13651-12.63637-11.87589-19.06372-15.25097-7.93288-3.80158-18.68665-9.86961-26.30793-15.25098-2.8208-2.69658-5.3939-3.97921-8.76931-7.62548-5.16353-3.90191-11.50752-5.82958-14.10715-9.53186-7.08317-4.8054-13.75098-8.81809-20.97009-13.3446 .85816,2.99703 3.73989,9.6761 7.62548,9.53185 3.30168,1.13151 4.40903,2.25293 7.24424,3.81275-1.71042,2.2803-3.02734.06102-5.33786-.38128-4.72267-5.02594-2.05382,5.82503-6.48166,3.0502-2.01032-1.91229-3.77832-7.23115-8.76932-6.10039-2.76089-1.09619-5.23918-4.82561-4.57529-7.62549-3.77473.19695-5.73376-3.36456-4.95657-6.86294-.99417-.36099-1.35311-.68101-2.28763-1.14382zm59.86008,254.69127c-7.29361,1.77494-11.7645,8.74438-15.23071,15.9527-.98672,3.11541-3.51552,5.1403-3.83301,8.06758-3.46865,4.8127 5.59291,2.57783 9.14613,3.0502 10.28558-.26448 21.62174.5216 31.26894-.38127-4.96867-3.54497-7.20475-12.46312-4.19403-17.15735 3.12556-1.14746 1.29513-5.83286-.76252-2.28765-.69255,3.64387-2.36122,6.70086-3.81277,1.90638-2.68123-3.40801 1.3458-10.29417-5.33783-8.38805-2.98426.64489-3.81119-1.48882-7.2442-.76254z" fill-rule="evenodd"/>
</svg>
